<?xml version="1.0" encoding="UTF-8" standalone="no"?>
<!-- Created with Inkscape (http://www.inkscape.org/) -->

<svg
   width="700.46631"
   height="807.34387"
   viewBox="0 0 185.33176 213.60973"
   version="1.1"
   id="svg1"
   xml:space="preserve"
   sodipodi:docname="white-logo.svg"
   inkscape:version="1.4 (e7c3feb1, 2024-10-09)"
   xmlns:inkscape="http://www.inkscape.org/namespaces/inkscape"
   xmlns:sodipodi="http://sodipodi.sourceforge.net/DTD/sodipodi-0.dtd"
   xmlns="http://www.w3.org/2000/svg"
   xmlns:svg="http://www.w3.org/2000/svg"><sodipodi:namedview
     id="namedview1"
     pagecolor="#505050"
     bordercolor="#eeeeee"
     borderopacity="1"
     inkscape:showpageshadow="0"
     inkscape:pageopacity="0"
     inkscape:pagecheckerboard="0"
     inkscape:deskcolor="#505050"
     inkscape:zoom="0.12394318"
     inkscape:cx="-512.33154"
     inkscape:cy="-116.98909"
     inkscape:window-width="1920"
     inkscape:window-height="1022"
     inkscape:window-x="0"
     inkscape:window-y="30"
     inkscape:window-maximized="1"
     inkscape:current-layer="svg1" /><defs
     id="defs1" /><path
     id="path75-0-3"
     style="fill:#ffffff;fill-opacity:1;stroke-width:0.792542"
     d="M 95.55042,1.2198616e-6 93.154693,1.5802758 C 76.924302,12.29104 58.826607,20.380088 39.071621,25.753479 c -5.373748,1.461669 -10.388389,2.581827 -15.59746,3.483513 -0.178932,-0.06672 -0.355294,-0.139217 -0.534308,-0.205676 -3.754496,0.643499 -7.587394,1.21516 -11.638092,1.671729 -2.4611168,0.277406 -4.5249209,0.555127 -4.5868301,0.61702 -0.1831582,0.183142 -0.864076,12.869697 -1.1136188,20.749646 -0.5389494,17.022224 1.0358802,40.583123 3.7920391,56.727799 1.9233278,11.26631 5.2017778,22.73972 9.1767268,32.11227 0.386207,0.91081 0.853385,1.79558 1.271251,2.69647 2.975203,-0.71347 6.096767,-1.67685 9.388063,-2.94866 1.273322,-0.49204 2.585846,-1.08007 3.887099,-1.64073 0.400876,-0.1727 0.817665,-0.38673 1.22111,-0.56585 -0.702051,-1.48353 -1.379737,-2.98409 -2.020542,-4.51445 0,-0.004 0.04227,-0.0225 0.04227,-0.0259 0,-0.0946 -0.198822,-0.67076 -0.441817,-1.28054 -2.143284,-5.37749 -4.89447,-14.56533 -6.243045,-20.84938 -2.858844,-13.321348 -4.314331,-28.509213 -4.559398,-47.570742 -0.103928,-8.083073 0.1089,-19.025586 0.375184,-19.291845 0.05055,-0.0508 1.044831,-0.235363 2.209668,-0.410316 C 42.262639,41.719762 63.405318,34.935323 80.542468,26.267086 85.5194,23.749721 90.674269,20.894093 93.384514,19.15331 l 2.10947,-1.354957 2.455149,1.523421 c 4.957537,3.076148 14.464857,8.077471 19.650477,10.337354 10.52555,4.586931 19.75059,7.832438 29.40494,10.424691 4.58012,1.229796 9.23317,2.360678 14.21151,3.328997 2.65264,0.515967 5.63903,1.055928 6.63679,1.199927 l 1.81434,0.261485 0.17264,3.272152 c 0.24805,4.707954 0.18465,20.252572 -0.10592,26.024253 -0.01,0.200472 -0.0257,0.369715 -0.0356,0.56896 -0.73114,14.167035 -1.93899,25.259588 -3.77447,34.515717 -3.80297,19.17776 -10.16793,34.00334 -20.54298,47.84877 -7.47882,9.98041 -18.27977,20.08855 -29.6684,27.76523 -6.3643,4.28995 -13.84271,8.77949 -18.521363,11.11922 l -1.745639,0.87334 -1.903769,-1.01597 v -0.0636 c -0.564724,-0.28351 -1.173456,-0.60102 -1.81078,-0.94155 -0.567625,-0.3209 -1.165252,-0.65085 -1.746137,-0.9772 0,0.005 -0.0083,0.0108 -0.0099,0.016 -4.429032,-2.46428 -9.961075,-5.86467 -14.855462,-9.16379 -8.69405,-5.86037 -16.980677,-13.14253 -23.757699,-20.69848 -0.54243,0.23693 -1.097458,0.50375 -1.636573,0.73278 -4.60498,1.95645 -9.091197,3.63129 -13.455005,5.02604 6.534026,7.97759 14.097883,15.38414 22.672507,21.93562 5.699372,4.35466 10.409854,7.62218 15.338055,10.63914 2.001729,1.22545 4.762861,2.79351 7.613499,4.36201 -0.0116,0.019 -0.01823,0.029 -0.02983,0.0481 0.705781,0.37752 1.700057,0.88034 2.487637,1.29244 5.147659,2.77709 10.003757,5.23145 10.826726,5.37744 0.02901,0.009 0.36068,0.17857 0.372615,0.17881 0.963363,0.0161 14.691698,-7.24415 20.999718,-11.10579 4.9282,-3.01697 9.63876,-6.28397 15.33813,-10.63863 18.209,-13.91267 32.18754,-31.50315 40.37273,-50.8031 3.97495,-9.37255 7.25389,-20.8449 9.17722,-32.11123 2.10325,-12.32045 3.51009,-28.943961 3.82304,-43.700691 h 4.9e-4 c 0.0971,-4.58044 0.0964,-8.996054 -0.0307,-13.028147 -0.24946,-7.879941 -0.92997,-20.566496 -1.11312,-20.749646 -0.0622,-0.06191 -2.12621,-0.339092 -4.58733,-0.616498 -14.02876,-1.581244 -25.74493,-4.165309 -38.86536,-8.572088 -3.23129,-1.0853 -6.17591,-2.177827 -9.05158,-3.302642 C 126.69492,17.056834 122.0451,15.003746 116.99996,12.48082 109.87398,8.917422 104.5231,5.8490403 97.872883,1.5135764 Z M 95.574454,40.522088 c -0.118762,8.29e-4 -0.22584,0.02768 -0.341122,0.04136 -0.01989,-6.72e-4 -0.03647,-0.0083 -0.05553,-0.0088 -0.238355,-0.0075 -0.475051,0.0085 -0.673376,0.05114 -0.562735,0.121299 -6.778762,3.477885 -8.712118,4.704623 -1.087264,0.689868 -1.408827,1.654599 -1.522368,4.564577 l -0.09978,2.558498 -12.111403,7.047631 c -6.140277,3.572697 -10.849765,6.293551 -12.120685,7.011978 -0.688128,0.385478 -1.430623,0.799051 -1.5498,0.843357 -0.163517,0.06042 -1.176191,-0.411915 -2.418933,-1.128089 -1.550629,-0.893779 -1.998331,-1.139203 -2.570431,-1.185465 -0.190783,-0.01541 -0.395489,-0.0088 -0.65937,0.0033 -0.06796,0.0025 -0.123901,0.01724 -0.187053,0.02171 -0.0905,0.0033 -0.161445,-4.14e-4 -0.269268,0.0058 -0.945793,0.06033 -1.423662,0.279752 -4.968645,2.279956 -4.323198,2.439461 -5.189014,3.101127 -5.490106,4.194068 -0.109812,0.398655 -0.24772,2.892458 -0.30648,5.54178 -0.10401,4.683067 -0.09481,4.838238 0.290982,5.596546 0.426816,0.837846 1.073174,1.378328 3.408069,2.849968 l 1.488223,0.938441 -0.185976,15.385113 -0.181915,14.92518 -1.4046,0.81907 c -2.384124,1.39036 -3.048052,1.90795 -3.503627,2.73059 -0.260234,0.46993 -0.355957,0.82762 -0.409827,2.1146 -0.07459,0.71301 -0.114039,1.59143 -0.169483,2.77915 -0.140063,3.01194 -0.126139,3.67022 0.07376,3.67265 0,0 0.02652,-0.0125 0.02984,-0.0129 0.01823,1.29526 0.05138,2.34207 0.107989,2.57919 0.07542,0.31478 0.232718,0.60446 0.467675,0.90588 0.02901,0.0522 0.04475,0.10858 0.07956,0.16536 0.178185,0.29446 0.76106,0.79548 1.618506,1.42524 5.958445,-3.6796 12.239199,-8.32616 18.650567,-13.76816 -0.527181,-0.6513 -1.416783,-1.2263 -3.029239,-2.24741 l -2.45573,-1.55546 c -0.136747,-0.62946 -0.141885,-4.01989 -0.01492,-14.50816 l 0.169484,-13.991387 0.0083,-0.585502 2.839036,-1.659331 c 1.563558,-0.914026 3.007027,-1.865479 3.20759,-2.114077 0.584034,-0.724246 0.729069,-1.542698 0.957064,-5.395536 l 0.174622,-2.941945 c 0.383223,-0.281127 7.655021,-4.527639 14.506135,-8.504908 l 0.148267,0.05636 0.895072,-0.587043 c 0.934853,-0.612992 8.076451,-4.623859 8.77154,-4.929419 0.430381,0.146461 1.364488,0.646251 2.641706,1.424723 2.807377,1.711038 3.733031,2.076145 4.828168,1.904788 0.02901,-0.0041 0.151085,-0.06871 0.192689,-0.08064 0.817665,-0.153431 1.847827,-0.638311 3.784829,-1.755444 1.200888,-0.692429 2.113608,-1.160361 2.587418,-1.334287 l 0.008,-5.22e-4 c 0.55561,0.241213 7.80751,4.549212 8.7369,5.191418 l 0.88106,0.608234 0.22899,-0.08064 c 1.88579,1.156988 2.19326,1.365457 3.98117,2.466512 2.25284,-0.788111 4.0308,-1.405719 6.05284,-2.115635 2.43559,-0.855043 3.89215,-1.342865 5.3919,-1.846393 -2.30937,-1.405587 -4.51125,-2.742534 -9.14259,-5.589841 l -11.93727,-7.339094 -0.0373,-2.560561 c -0.0431,-2.911868 -0.3412,-3.88424 -1.41123,-4.600239 -1.9031,-1.27334 -8.035257,-4.780058 -8.594842,-4.914949 -0.197165,-0.04782 -0.433447,-0.07293 -0.671802,-0.06721 z m 41.925096,31.908126 c -0.14363,0.0041 -0.27507,0.01782 -0.40983,0.04293 -0.0688,-8.28e-4 -0.15763,-0.01028 -0.22219,-0.0058 -0.57301,0.03265 -1.02594,0.267088 -2.59778,1.122934 -1.19252,0.649226 -2.14959,1.069769 -2.38852,1.059881 l -0.0572,-0.03357 c -0.26852,1.725185 -0.58552,3.726202 -0.97148,6.046676 -0.42798,2.573009 -1.20114,7.257709 -1.87841,11.349174 0.44663,0.297098 0.87668,0.589455 1.39159,0.907438 l 2.79834,1.727547 -0.008,0.509528 -0.17057,14.067358 c -0.1234,10.17503 -0.20943,13.64071 -0.35396,14.42032 l -2.5048,1.50274 c -2.01565,1.20873 -2.95929,1.76258 -3.42713,2.63602 -0.55892,0.66063 -0.71001,1.57418 -0.85214,4.86896 l -0.12763,2.96519 c -0.39682,0.31957 -15.17247,9.12495 -20.44427,12.20855 -1.84617,1.01203 -3.3421,1.80881 -3.84832,2.05053 -0.44894,-0.15833 -1.38073,-0.64829 -2.628774,-1.39164 -2.824533,-1.68236 -3.753502,-2.03826 -4.846733,-1.85571 0,6.3e-4 -0.01989,0.009 -0.0232,0.01 -0.883304,0.0387 -1.93866,0.49632 -4.206425,1.77353 -1.192269,0.67147 -2.097286,1.12417 -2.578139,1.29864 -0.74407,-0.36955 -4.255487,-2.40727 -6.569166,-3.78892 -0.684896,-0.42745 -1.520711,-0.95588 -2.267516,-1.42318 -2.745053,2.27748 -5.447674,4.4334 -8.123525,6.51433 3.900525,2.47776 8.211209,5.21529 9.364775,5.93454 1.734699,1.08165 2.662922,1.62243 3.178583,2.0655 0.03315,0.0493 0.09365,0.0902 0.12042,0.14469 l 0.0083,1.78491 c 0.01077,1.40903 0.07956,2.35861 0.271837,3.05201 0.104259,1.19899 0.343111,1.79779 0.876424,2.31614 0.307309,0.2988 2.503716,1.68029 4.880298,3.07009 3.338619,1.9524 4.468979,2.52913 4.973866,2.53525 0.04973,4.5e-4 0.142797,-0.034 0.206198,-0.0449 0.0099,5e-4 0.02818,0.01 0.0373,0.01 0.504887,0.006 1.64917,-0.54349 5.034283,-2.41432 2.409564,-1.33175 4.638704,-2.65895 4.953224,-2.95021 0.54575,-0.50528 0.7996,-1.09832 0.93278,-2.29443 0.20852,-0.68854 0.30491,-1.63628 0.34568,-3.04478 l 0.0506,-1.73632 c 0.49138,-0.45468 1.43502,-0.96861 3.35171,-2.10013 1.56132,-0.92161 7.26625,-4.34579 12.67779,-7.60936 l 9.83974,-5.93349 1.76528,1.01544 c 3.23759,1.86285 3.78516,1.87229 6.91684,0.11524 3.86787,-2.1701 6.59154,-3.98707 7.04769,-4.70101 0.0688,-0.10732 0.11106,-0.20996 0.15963,-0.31316 0.2076,-0.27037 0.33822,-0.53213 0.41446,-0.82062 0.063,-0.23569 0.12125,-1.28106 0.17007,-2.57555 l 0.0298,0.0129 c 0.20007,0.002 0.22932,-0.65457 0.16228,-3.66903 -0.0257,-1.1887 -0.0431,-2.06814 -0.10236,-2.78278 -0.0224,-1.28783 -0.10931,-1.64775 -0.35811,-2.1239 -0.43543,-0.83343 -1.08726,-1.36655 -3.43699,-2.81429 l -1.38388,-0.8537 0.18141,-14.92519 0.18656,-15.385116 1.51151,-0.901752 c 2.36987,-1.41452 3.02816,-1.938983 3.4752,-2.766237 0.40419,-0.748703 0.41671,-0.903542 0.4264,-5.587777 0.008,-2.649936 -0.0713,-5.146756 -0.17163,-5.54798 -0.27441,-1.099969 -1.12348,-1.781666 -5.38618,-4.32532 -3.49542,-2.085584 -3.9684,-2.316745 -4.91237,-2.399854 -0.18399,-0.01624 -0.34005,-0.02254 -0.48367,-0.01865 z m -11.53425,3.294893 c -0.5348,0.0083 -2.90807,0.704645 -8.32094,2.429317 -4.61368,1.470023 -10.8278,3.439969 -13.80947,4.378029 -2.9815,0.938011 -7.354755,2.330586 -9.718243,3.09438 -2.363736,0.763779 -7.219585,2.295288 -10.790591,3.403413 -3.571172,1.10814 -6.460431,2.049938 -6.420816,2.092894 0.03895,0.04301 2.993684,1.655112 6.564525,3.582211 3.57084,1.927106 6.570658,3.586984 6.666215,3.688658 0.241089,0.256604 -0.08205,0.667649 -3.63391,4.634351 -7.795912,8.70384 -15.74813,16.44514 -23.519428,23.04148 0.01906,0.023 0.04558,0.045 0.06299,0.0682 -0.01823,-0.0234 -0.04558,-0.0456 -0.06381,-0.0687 -6.411286,5.44188 -12.691625,10.08861 -18.649987,13.76815 0.0083,0.006 0.01906,0.0134 0.02735,0.0196 -0.0083,-0.006 -0.01989,-0.0134 -0.02735,-0.0191 -0.255759,0.15797 -0.520551,0.34323 -0.775149,0.49765 v -5.2e-4 c -4.535032,2.75095 -8.870579,4.93516 -12.924344,6.48643 -0.654148,0.25033 -1.313932,0.5137 -1.952832,0.7307 -10.027542,3.40597 -17.05394,1.82737 -20.0189496,-4.49637 -1.2851743,-2.74143 -1.5095225,-4.18242 -1.3388786,-8.616 0.1485985,-3.87115 0.6909459,-7.22338 1.6009358,-9.88932 0.2784669,-0.8154 0.2802073,-0.88626 0.01326,-0.55863 -0.6795918,0.83348 -4.3029762,7.52891 -5.2110599,9.62939 -2.4669181,5.70586 -3.26270351,8.51019 -3.61269327,12.73618 -0.36880284,4.45419 0.14437182,7.09852 1.95332907,10.06088 2.2447247,3.67603 5.9016743,6.09711 10.7533795,7.12101 3.252178,0.68626 7.812073,0.65282 12.489156,-0.092 4.065451,-0.64741 8.408291,-1.84728 13.001751,-3.57859 4.208413,-1.58615 8.634545,-3.63596 13.24831,-6.11126 h 4.97e-4 v 5.2e-4 c 10.281892,-5.51638 21.518196,-13.19801 33.524593,-22.97224 3.579211,-2.91374 16.32637,-14.6176 18.8924,-17.34624 l 1.79056,-1.90478 0.38298,0.50642 c 0.21059,0.27838 1.76031,2.27747 3.4437,4.44262 1.6834,2.16516 3.91396,5.0442 4.9573,6.39807 1.04317,1.35385 1.93103,2.43072 1.97247,2.39261 0.0414,-0.0381 0.31883,-1.41707 0.61652,-3.06441 0.29794,-1.64733 0.76471,-4.12151 1.03712,-5.49837 0.27259,-1.37684 1.4806,-7.55115 2.68414,-13.72009 1.20354,-6.16897 2.88363,-14.755794 3.73361,-19.082042 0.84991,-4.326298 1.52113,-7.992182 1.49237,-8.146789 -0.008,-0.02602 -0.0439,-0.03879 -0.12042,-0.03771 z M 63.906058,128.35912 v 5.2e-4 c -0.0174,0.0166 -0.03481,0.032 -0.05138,0.0486 0.0174,-0.0166 0.03481,-0.0325 0.05138,-0.0491 z m -15.756169,13.93506 c -0.01658,0.0133 -0.03315,0.0279 -0.04973,0.0413 -0.0174,-0.0105 -0.02984,-0.019 -0.04641,-0.0294 0.01575,0.01 0.03066,0.019 0.04641,0.0289 0.01657,-0.0134 0.03315,-0.0274 0.04973,-0.0409 z" /></svg>
