<?xml version="1.0" encoding="UTF-8" standalone="no"?>
<!-- Created with Inkscape (http://www.inkscape.org/) -->

<svg
   width="1024"
   height="1024"
   viewBox="0 0 270.9334 270.93333"
   version="1.1"
   id="svg1"
   xml:space="preserve"
   inkscape:version="1.4 (e7c3feb1, 2024-10-09)"
   sodipodi:docname="vpn-logo copy.svg"
   inkscape:export-filename="vpn-logo.png"
   inkscape:export-xdpi="96"
   inkscape:export-ydpi="96"
   xmlns:inkscape="http://www.inkscape.org/namespaces/inkscape"
   xmlns:sodipodi="http://sodipodi.sourceforge.net/DTD/sodipodi-0.dtd"
   xmlns="http://www.w3.org/2000/svg"
   xmlns:svg="http://www.w3.org/2000/svg"><sodipodi:namedview
     id="namedview1"
     pagecolor="#505050"
     bordercolor="#eeeeee"
     borderopacity="1"
     inkscape:showpageshadow="0"
     inkscape:pageopacity="0"
     inkscape:pagecheckerboard="0"
     inkscape:deskcolor="#505050"
     inkscape:document-units="px"
     inkscape:zoom="0.2867428"
     inkscape:cx="102.87965"
     inkscape:cy="908.47965"
     inkscape:window-width="1920"
     inkscape:window-height="1022"
     inkscape:window-x="0"
     inkscape:window-y="30"
     inkscape:window-maximized="1"
     inkscape:current-layer="g97" /><defs
     id="defs1"><inkscape:path-effect
       effect="fillet_chamfer"
       id="path-effect11"
       is_visible="true"
       lpeversion="1"
       nodesatellites_param="F,0,0,1,0,52.91668,0,1 @ F,0,0,1,0,52.91668,0,1 @ F,0,0,1,0,52.91668,0,1 @ F,0,0,1,0,52.91668,0,1"
       radius="200"
       unit="px"
       method="auto"
       mode="F"
       chamfer_steps="1"
       flexible="false"
       use_knot_distance="true"
       apply_no_radius="true"
       apply_with_radius="true"
       only_selected="false"
       hide_knots="false" /><inkscape:path-effect
       effect="fillet_chamfer"
       id="path-effect3"
       is_visible="true"
       lpeversion="1"
       nodesatellites_param="F,0,0,1,0,15.875004,0,1 @ F,0,0,1,0,15.875004,0,1 @ F,0,0,1,0,15.875004,0,1 @ F,0,0,1,0,15.875004,0,1"
       radius="60"
       unit="px"
       method="auto"
       mode="F"
       chamfer_steps="1"
       flexible="false"
       use_knot_distance="true"
       apply_no_radius="true"
       apply_with_radius="true"
       only_selected="false"
       hide_knots="false" /><rect
       x="-101.38235"
       y="1411.8118"
       width="0"
       height="89.328833"
       id="rect2" /><inkscape:path-effect
       effect="fillet_chamfer"
       id="path-effect3-8"
       is_visible="true"
       lpeversion="1"
       nodesatellites_param="F,0,0,1,0,15.875004,0,1 @ F,0,0,1,0,15.875004,0,1 @ F,0,0,1,0,15.875004,0,1 @ F,0,0,1,0,15.875004,0,1"
       radius="60"
       unit="px"
       method="auto"
       mode="F"
       chamfer_steps="1"
       flexible="false"
       use_knot_distance="true"
       apply_no_radius="true"
       apply_with_radius="true"
       only_selected="false"
       hide_knots="false" /></defs><g
     inkscape:label="Layer 1"
     inkscape:groupmode="layer"
     id="layer1"><path
       style="font-variation-settings:'wght' 700;fill:#5e6eef;fill-opacity:1;stroke:none;stroke-width:0.529167;stroke-linecap:square"
       id="rect10"
       width="270.93335"
       height="270.93335"
       x="0"
       y="0"
       inkscape:path-effect="#path-effect11"
       sodipodi:type="rect"
       d="m 52.91668,0 h 165.09999 a 52.91668,52.91668 45 0 1 52.91668,52.91668 v 165.09999 a 52.91668,52.91668 135 0 1 -52.91668,52.91668 H 52.91668 A 52.91668,52.91668 45 0 1 0,218.01667 V 52.91668 A 52.91668,52.91668 135 0 1 52.91668,0 Z" /><text
       xml:space="preserve"
       transform="scale(0.26458336)"
       id="text2"
       style="font-size:85.3333px;font-family:MuseoModerno;-inkscape-font-specification:'MuseoModerno, @wght=700';font-variation-settings:'wght' 700;text-align:start;writing-mode:lr-tb;direction:ltr;white-space:pre;shape-inside:url(#rect2);display:inline;fill:#000000;fill-opacity:0.996078;stroke:#000000;stroke-width:2;stroke-linecap:square" /><g
       id="g97"
       transform="matrix(0.82877044,0,0,0.82877044,1386.7898,418.46962)"><path
         id="path75"
         style="fill:#ffffff;stroke-width:0.956287"
         d="M -1507.7492 -470.34472 L -1510.6399 -468.43796 C -1530.2236 -455.51428 -1552.0604 -445.75398 -1575.8969 -439.27041 C -1582.3809 -437.50675 -1588.4316 -436.15516 -1594.7169 -435.06718 C -1594.9328 -435.14768 -1595.1456 -435.23516 -1595.3616 -435.31535 C -1599.8918 -434.5389 -1604.5166 -433.84913 -1609.4042 -433.29823 C -1612.3738 -432.96351 -1614.864 -432.62841 -1614.9387 -432.55373 C -1615.1597 -432.33274 -1615.9813 -417.02506 -1616.2824 -407.51707 C -1616.9327 -386.97794 -1615.0325 -358.5492 -1611.7069 -339.06892 C -1609.3862 -325.47492 -1605.4304 -311.63103 -1600.6342 -300.32205 C -1600.1682 -299.22305 -1599.6045 -298.15549 -1599.1003 -297.06846 C -1595.5104 -297.92933 -1591.7439 -299.09176 -1587.7726 -300.62633 C -1586.2362 -301.22004 -1584.6525 -301.92955 -1583.0824 -302.60605 C -1582.5987 -302.81444 -1582.0958 -303.07268 -1581.609 -303.28881 C -1582.4561 -305.07885 -1583.2738 -306.88944 -1584.047 -308.73598 C -1584.047 -308.74098 -1583.9959 -308.76306 -1583.9959 -308.76716 C -1583.9959 -308.88129 -1584.2358 -309.57651 -1584.529 -310.31227 C -1587.1151 -316.80079 -1590.4347 -327.88689 -1592.0619 -335.46927 C -1595.5114 -351.5429 -1597.2676 -369.86868 -1597.5633 -392.86845 C -1597.6887 -402.62154 -1597.4319 -415.82485 -1597.1106 -416.14612 C -1597.0496 -416.20742 -1595.8499 -416.43011 -1594.4444 -416.64121 C -1572.0465 -420.00532 -1546.5356 -428.19147 -1525.8578 -438.65062 C -1519.8526 -441.68809 -1513.6327 -445.13371 -1510.3625 -447.23415 L -1507.8172 -448.86905 L -1504.8548 -447.03088 C -1498.873 -443.31918 -1487.4014 -437.28454 -1481.1444 -434.55776 C -1468.4442 -429.02314 -1457.3132 -425.10709 -1445.6642 -421.97926 C -1440.1378 -420.49538 -1434.5234 -419.13085 -1428.5165 -417.96247 C -1425.3158 -417.3399 -1421.7124 -416.68838 -1420.5085 -416.51463 L -1418.3193 -416.19912 L -1418.111 -412.25092 C -1417.8117 -406.57027 -1417.8882 -387.81403 -1418.2388 -380.84988 C -1418.2508 -380.60799 -1418.2698 -380.40378 -1418.2818 -380.16337 C -1419.164 -363.06933 -1420.6214 -349.68498 -1422.8361 -338.51647 C -1427.4248 -315.37646 -1435.1048 -297.48781 -1447.6234 -280.78182 C -1456.6474 -268.73939 -1469.6799 -256.54284 -1483.4215 -247.28011 C -1491.1007 -242.10383 -1500.1242 -236.68672 -1505.7695 -233.86358 L -1507.8758 -232.80981 L -1510.1729 -234.03568 L -1510.1729 -234.11237 C -1510.8543 -234.45445 -1511.5888 -234.83756 -1512.3578 -235.24844 C -1513.0427 -235.63564 -1513.7638 -236.03376 -1514.4647 -236.42754 C -1514.4647 -236.42154 -1514.4745 -236.41451 -1514.4765 -236.40821 C -1519.8206 -239.38162 -1526.4956 -243.48456 -1532.4012 -247.4653 C -1542.8915 -254.53646 -1552.8902 -263.32316 -1561.0674 -272.44022 C -1561.7219 -272.15434 -1562.3916 -271.8324 -1563.0421 -271.55605 C -1568.5985 -269.19538 -1574.0116 -267.1745 -1579.277 -265.49159 C -1571.393 -255.86578 -1562.2664 -246.92898 -1551.9202 -239.02393 C -1545.0433 -233.76956 -1539.3596 -229.82695 -1533.4132 -226.18666 C -1530.9979 -224.70803 -1527.6663 -222.81599 -1524.2267 -220.92343 C -1524.2407 -220.90053 -1524.2488 -220.88845 -1524.2628 -220.86545 C -1523.4112 -220.40993 -1522.2115 -219.80323 -1521.2612 -219.30599 C -1515.05 -215.95513 -1509.1906 -212.99368 -1508.1976 -212.81753 C -1508.1626 -212.80663 -1507.7624 -212.60206 -1507.748 -212.60178 C -1506.5856 -212.58238 -1490.0209 -221.34262 -1482.4096 -226.0021 C -1476.4632 -229.64239 -1470.7794 -233.58438 -1463.9025 -238.83874 C -1441.9314 -255.62586 -1425.0648 -276.85065 -1415.1885 -300.13811 C -1410.3923 -311.44709 -1406.4359 -325.2897 -1404.1152 -338.88373 C -1401.5774 -353.74967 -1399.8799 -373.80771 -1399.5023 -391.61328 L -1399.5017 -391.61328 C -1399.3845 -397.14007 -1399.3854 -402.46798 -1399.5391 -407.33313 C -1399.8401 -416.84112 -1400.6612 -432.1488 -1400.8822 -432.36979 C -1400.9572 -432.44449 -1403.4477 -432.77894 -1406.4173 -433.11366 C -1423.3445 -435.0216 -1437.4813 -438.13955 -1453.3125 -443.4568 C -1457.2114 -444.76633 -1460.7644 -446.08458 -1464.2342 -447.44179 C -1470.1703 -449.76374 -1475.7808 -452.24101 -1481.8683 -455.28519 C -1490.4665 -459.58487 -1496.9229 -463.2872 -1504.9471 -468.5184 L -1507.7492 -470.34472 z M -1507.7199 -421.45051 C -1507.8632 -421.44951 -1507.9924 -421.41712 -1508.1315 -421.40062 C -1508.1555 -421.40143 -1508.1758 -421.41062 -1508.1988 -421.41122 C -1508.4864 -421.42022 -1508.772 -421.40089 -1509.0113 -421.34949 C -1509.6903 -421.20313 -1517.1906 -417.15306 -1519.5234 -415.67286 C -1520.8353 -414.84046 -1521.2233 -413.67641 -1521.3603 -410.16521 L -1521.4807 -407.07811 L -1536.0944 -398.57439 C -1543.5033 -394.26355 -1549.1858 -390.98055 -1550.7193 -390.11369 C -1551.5496 -389.64857 -1552.4455 -389.14955 -1552.5893 -389.09609 C -1552.7866 -389.02319 -1554.0085 -389.59311 -1555.508 -390.45725 C -1557.379 -391.53569 -1557.9192 -391.83182 -1558.6095 -391.88764 C -1558.8397 -391.90624 -1559.0867 -391.89819 -1559.4051 -391.88389 C -1559.4871 -391.88089 -1559.5546 -391.86311 -1559.6308 -391.85771 C -1559.74 -391.85371 -1559.8256 -391.85822 -1559.9557 -391.85022 C -1561.0969 -391.77742 -1561.6735 -391.51266 -1565.9509 -389.0992 C -1571.1673 -386.15574 -1572.212 -385.35737 -1572.5753 -384.03862 C -1572.7078 -383.55759 -1572.8742 -380.54855 -1572.9451 -377.35187 C -1573.0706 -371.70124 -1573.0595 -371.51401 -1572.594 -370.59903 C -1572.079 -369.58809 -1571.2991 -368.93594 -1568.4818 -367.16025 L -1566.6861 -366.02792 L -1566.9105 -347.46414 L -1567.13 -329.45531 L -1568.8248 -328.46701 C -1571.7015 -326.7894 -1572.5026 -326.16487 -1573.0523 -325.17227 C -1573.3663 -324.60524 -1573.4818 -324.17366 -1573.5468 -322.62078 C -1573.6368 -321.76046 -1573.6844 -320.70055 -1573.7513 -319.26743 C -1573.9203 -315.6332 -1573.9035 -314.83892 -1573.6627 -314.83599 C -1573.6627 -314.83599 -1573.6312 -314.85108 -1573.6272 -314.85158 C -1573.6052 -313.28873 -1573.5652 -312.02562 -1573.4969 -311.73953 C -1573.4059 -311.35971 -1573.2161 -311.01017 -1572.9326 -310.64648 C -1572.8976 -310.58348 -1572.8786 -310.51547 -1572.8366 -310.44695 C -1572.6216 -310.09166 -1571.9183 -309.48713 -1570.8837 -308.72725 C -1563.6942 -313.16708 -1556.1158 -318.77366 -1548.3798 -325.34 C -1549.0159 -326.12587 -1550.0893 -326.81967 -1552.0349 -328.05174 L -1554.998 -329.92857 C -1555.163 -330.68808 -1555.1692 -334.77901 -1555.016 -347.43421 L -1554.8115 -364.31632 L -1554.8015 -365.02279 L -1551.3759 -367.02495 C -1549.4893 -368.12782 -1547.7476 -369.27585 -1547.5056 -369.57581 C -1546.8009 -370.44969 -1546.6259 -371.43724 -1546.3508 -376.0861 L -1546.1401 -379.63587 C -1545.6777 -379.97508 -1536.9035 -385.09895 -1528.6369 -389.89795 L -1528.458 -389.82998 L -1527.378 -390.53831 C -1526.25 -391.27795 -1517.6329 -396.11749 -1516.7942 -396.48618 C -1516.2749 -396.30946 -1515.1478 -395.70641 -1513.6067 -394.7671 C -1510.2193 -392.70255 -1509.1024 -392.26201 -1507.781 -392.46877 C -1507.746 -392.47377 -1507.5987 -392.55164 -1507.5485 -392.56604 C -1506.5619 -392.75117 -1505.3189 -393.33623 -1502.9817 -394.68417 C -1501.5327 -395.51966 -1500.4314 -396.08427 -1499.8597 -396.29413 L -1499.8497 -396.29476 C -1499.1793 -396.00371 -1490.4291 -390.80565 -1489.3077 -390.03076 L -1488.2446 -389.29686 L -1487.9683 -389.39413 C -1485.6929 -387.9981 -1485.3219 -387.74656 -1483.1646 -386.41802 C -1480.4463 -387.36896 -1478.301 -388.11417 -1475.8612 -388.97076 C -1472.9224 -390.00246 -1471.1649 -390.59107 -1469.3553 -391.19863 C -1472.1418 -392.89462 -1474.7986 -394.50779 -1480.3868 -397.94337 L -1494.7904 -406.79877 L -1494.8353 -409.88836 C -1494.8873 -413.40184 -1495.247 -414.57511 -1496.5381 -415.43904 C -1498.8344 -416.97546 -1506.2335 -421.20669 -1506.9087 -421.36945 C -1507.1466 -421.42715 -1507.4317 -421.45741 -1507.7193 -421.45051 L -1507.7199 -421.45051 z M -1457.1328 -382.94994 C -1457.3061 -382.94515 -1457.4647 -382.92848 -1457.6273 -382.89818 C -1457.7103 -382.89918 -1457.8175 -382.91054 -1457.8954 -382.90504 C -1458.5868 -382.86564 -1459.1333 -382.58277 -1461.0299 -381.55011 C -1462.4688 -380.76675 -1463.6236 -380.25932 -1463.9119 -380.27125 L -1463.9805 -380.31178 C -1464.3045 -378.23017 -1464.687 -375.81573 -1465.1527 -373.01583 C -1465.6691 -369.91122 -1466.602 -364.25863 -1467.4192 -359.32184 C -1466.8803 -358.96336 -1466.3614 -358.61059 -1465.7401 -358.22692 L -1462.3636 -356.14245 L -1462.3736 -355.52765 L -1462.5794 -338.55388 C -1462.7283 -326.27661 -1462.8321 -322.09491 -1463.0065 -321.15423 L -1466.0288 -319.34101 C -1468.4609 -317.88255 -1469.5995 -317.21427 -1470.164 -316.16037 C -1470.8384 -315.36326 -1471.0207 -314.26096 -1471.1922 -310.28546 L -1471.3462 -306.70764 C -1471.825 -306.32203 -1489.6534 -295.6974 -1496.0144 -291.97671 C -1498.242 -290.7556 -1500.047 -289.79419 -1500.6578 -289.50253 C -1501.1995 -289.69357 -1502.3238 -290.28477 -1503.8297 -291.1817 C -1507.2378 -293.21163 -1508.3587 -293.64106 -1509.6778 -293.42081 C -1509.6778 -293.42005 -1509.7019 -293.40966 -1509.7059 -293.40896 C -1510.7717 -293.36226 -1512.0451 -292.8101 -1514.7814 -291.269 C -1516.22 -290.45881 -1517.312 -289.91258 -1517.8922 -289.70206 C -1518.79 -290.14795 -1523.0269 -292.60668 -1525.8186 -294.2738 C -1526.645 -294.78956 -1527.6535 -295.42717 -1528.5546 -295.991 C -1531.8668 -293.24298 -1535.1278 -290.64164 -1538.3565 -288.13077 C -1533.6501 -285.1411 -1528.4488 -281.83798 -1527.0569 -280.97013 C -1524.9638 -279.66499 -1523.8438 -279.01249 -1523.2216 -278.47788 C -1523.1816 -278.41838 -1523.1086 -278.36909 -1523.0763 -278.30329 L -1523.0663 -276.14961 C -1523.0533 -274.44946 -1522.9702 -273.30369 -1522.7383 -272.46703 C -1522.6125 -271.02032 -1522.3243 -270.29781 -1521.6808 -269.67237 C -1521.31 -269.31183 -1518.6598 -267.64492 -1515.7922 -265.96797 C -1511.7638 -263.61219 -1510.3999 -262.91631 -1509.7907 -262.90892 C -1509.7307 -262.90838 -1509.6184 -262.94997 -1509.5419 -262.96317 C -1509.5299 -262.96257 -1509.508 -262.95152 -1509.497 -262.95132 C -1508.8878 -262.94432 -1507.5071 -263.6071 -1503.4226 -265.86446 C -1500.5152 -267.47136 -1497.8255 -269.07276 -1497.446 -269.4242 C -1496.7875 -270.03387 -1496.4812 -270.74944 -1496.3205 -272.19268 C -1496.0689 -273.02347 -1495.9526 -274.16702 -1495.9034 -275.86653 L -1495.8423 -277.96159 C -1495.2494 -278.5102 -1494.1108 -279.13031 -1491.7981 -280.49562 C -1489.9142 -281.60764 -1483.0306 -285.73928 -1476.501 -289.67712 L -1464.6283 -296.83651 L -1462.4983 -295.61127 C -1458.5918 -293.36355 -1457.9311 -293.35215 -1454.1524 -295.47222 C -1449.4854 -298.09068 -1446.199 -300.28305 -1445.6486 -301.14449 C -1445.5656 -301.27399 -1445.5146 -301.39783 -1445.456 -301.52235 C -1445.2055 -301.84859 -1445.0479 -302.16443 -1444.9559 -302.51252 C -1444.8799 -302.7969 -1444.8096 -304.05826 -1444.7507 -305.6202 L -1444.7146 -305.60461 C -1444.4732 -305.60161 -1444.4379 -306.39441 -1444.5188 -310.03168 C -1444.5498 -311.46598 -1444.5712 -312.52711 -1444.6423 -313.3894 C -1444.6693 -314.94331 -1444.7742 -315.37759 -1445.0744 -315.95211 C -1445.5998 -316.95774 -1446.3863 -317.601 -1449.2215 -319.34786 L -1450.8913 -320.37794 L -1450.6724 -338.38677 L -1450.4473 -356.95055 L -1448.6235 -358.03861 C -1445.764 -359.74538 -1444.9697 -360.3782 -1444.4303 -361.37637 C -1443.9426 -362.27976 -1443.9275 -362.46659 -1443.9158 -368.11862 C -1443.9058 -371.31605 -1444.0022 -374.32873 -1444.1229 -374.81285 C -1444.454 -376.14008 -1445.4785 -376.96262 -1450.6219 -380.03181 C -1454.8395 -382.54829 -1455.4102 -382.82721 -1456.5492 -382.92749 C -1456.7712 -382.94704 -1456.9595 -382.95472 -1457.1328 -382.94994 z M -1471.0501 -378.9743 C -1471.6954 -378.9643 -1474.559 -378.12407 -1481.0902 -376.04308 C -1486.6571 -374.26933 -1494.1551 -371.89238 -1497.7528 -370.76052 C -1501.3503 -369.6287 -1506.6271 -367.94841 -1509.4789 -367.02682 C -1512.331 -366.10523 -1518.1901 -364.2573 -1522.4989 -362.92024 C -1526.8079 -361.58315 -1530.2941 -360.44677 -1530.2463 -360.39494 C -1530.1993 -360.34304 -1526.6341 -358.39787 -1522.3255 -356.07262 C -1518.0169 -353.74735 -1514.3973 -351.74454 -1514.282 -351.62185 C -1513.9911 -351.31223 -1514.381 -350.81627 -1518.6667 -346.03002 C -1528.0733 -335.52791 -1537.6685 -326.18719 -1547.0454 -318.228 C -1547.0225 -318.20034 -1546.9902 -318.17368 -1546.9694 -318.1457 C -1546.9914 -318.1739 -1547.0247 -318.20073 -1547.0467 -318.22863 C -1554.7826 -311.66242 -1562.3605 -306.05564 -1569.5499 -301.61588 C -1569.5398 -301.60843 -1569.5271 -301.59967 -1569.5169 -301.59218 C -1569.5264 -301.59913 -1569.5405 -301.60834 -1569.5499 -301.61526 C -1569.8585 -301.42466 -1570.178 -301.20112 -1570.4852 -301.01479 L -1570.4852 -301.01542 C -1575.9572 -297.6961 -1581.1885 -295.06062 -1586.0798 -293.18885 C -1586.8691 -292.8868 -1587.6652 -292.56902 -1588.4361 -292.30718 C -1600.5354 -288.19752 -1609.0135 -290.10226 -1612.5911 -297.73253 C -1614.1418 -301.04036 -1614.4125 -302.77907 -1614.2066 -308.12866 C -1614.0273 -312.79961 -1613.3729 -316.84444 -1612.2749 -320.06118 C -1611.9389 -321.04505 -1611.9368 -321.13054 -1612.2593 -320.73522 C -1613.0793 -319.72954 -1617.4513 -311.65079 -1618.547 -309.11634 C -1621.5236 -302.23161 -1622.4838 -298.84788 -1622.9061 -293.74878 C -1623.3511 -288.37432 -1622.7319 -285.18366 -1620.5492 -281.60925 C -1617.8407 -277.17373 -1613.4282 -274.25244 -1607.5741 -273.01699 C -1603.65 -272.18895 -1598.148 -272.22929 -1592.5046 -273.12798 C -1587.5992 -273.90914 -1582.3591 -275.35692 -1576.8166 -277.44593 C -1571.7387 -279.35979 -1566.3981 -281.8331 -1560.8311 -284.81981 L -1560.8305 -284.81981 L -1560.8305 -284.81919 C -1548.4243 -291.47529 -1534.8665 -300.74399 -1520.3795 -312.53765 C -1516.0608 -316.05338 -1500.68 -330.17534 -1497.5838 -333.46773 L -1495.4233 -335.76607 L -1494.9612 -335.15501 C -1494.7071 -334.81911 -1492.8372 -332.40699 -1490.806 -329.79451 C -1488.7748 -327.18202 -1486.0834 -323.70815 -1484.8245 -322.07457 C -1483.5658 -320.44099 -1482.4945 -319.14163 -1482.4445 -319.18762 C -1482.3945 -319.23362 -1482.0598 -320.89747 -1481.7006 -322.88516 C -1481.3411 -324.87283 -1480.7779 -327.85821 -1480.4492 -329.51953 C -1480.1203 -331.18084 -1478.6627 -338.6308 -1477.2105 -346.07429 C -1475.7583 -353.51781 -1473.7311 -363.87872 -1472.7055 -369.09881 C -1471.68 -374.31895 -1470.8701 -378.74223 -1470.9048 -378.92878 C -1470.9148 -378.96018 -1470.9578 -378.9756 -1471.0501 -378.9743 z M -1545.9312 -315.46576 L -1545.9312 -315.46513 C -1545.952 -315.44512 -1545.9728 -315.42653 -1545.9935 -315.40652 C -1545.9728 -315.42651 -1545.952 -315.44576 -1545.9312 -315.46576 z M -1564.9427 -298.65161 C -1564.9627 -298.63546 -1564.9831 -298.61786 -1565.0031 -298.60173 C -1565.0236 -298.61438 -1565.0388 -298.62464 -1565.0593 -298.63727 C -1565.0398 -298.62524 -1565.0227 -298.6144 -1565.0031 -298.60235 C -1564.983 -298.61852 -1564.9628 -298.63542 -1564.9427 -298.65161 z " /></g></g></svg>
