<?xml version="1.0" encoding="UTF-8" standalone="no"?>
<!-- Created with Inkscape (http://www.inkscape.org/) -->

<svg
   width="700.46637"
   height="807.34381"
   viewBox="0 0 185.33177 213.60971"
   version="1.1"
   id="svg1"
   xml:space="preserve"
   sodipodi:docname="black-logo.svg"
   inkscape:version="1.4 (e7c3feb1, 2024-10-09)"
   xmlns:inkscape="http://www.inkscape.org/namespaces/inkscape"
   xmlns:sodipodi="http://sodipodi.sourceforge.net/DTD/sodipodi-0.dtd"
   xmlns="http://www.w3.org/2000/svg"
   xmlns:svg="http://www.w3.org/2000/svg"><sodipodi:namedview
     id="namedview1"
     pagecolor="#505050"
     bordercolor="#eeeeee"
     borderopacity="1"
     inkscape:showpageshadow="0"
     inkscape:pageopacity="0"
     inkscape:pagecheckerboard="0"
     inkscape:deskcolor="#505050"
     inkscape:zoom="0.10511798"
     inkscape:cx="147.45337"
     inkscape:cy="803.85869"
     inkscape:window-width="1920"
     inkscape:window-height="1022"
     inkscape:window-x="0"
     inkscape:window-y="30"
     inkscape:window-maximized="1"
     inkscape:current-layer="svg1" /><defs
     id="defs1" /><path
     id="path75-0"
     style="fill:#000000;fill-opacity:1;stroke-width:0.792542"
     d="M 95.550475,-4.6475839e-7 93.154749,1.5802741 C 76.924357,12.291038 58.826663,20.380086 39.071676,25.753477 c -5.373747,1.46167 -10.388389,2.581828 -15.59746,3.483513 -0.178931,-0.06672 -0.355293,-0.139217 -0.534308,-0.205676 -3.754496,0.643499 -7.587393,1.21516 -11.638092,1.67173 C 8.8406997,30.98045 6.7768955,31.258171 6.7149864,31.320063 6.5318281,31.503205 5.8509103,44.189758 5.6013675,52.069707 5.0624181,69.091931 6.6372477,92.65283 9.3934067,108.7975 c 1.9233273,11.26632 5.2017773,22.73972 9.1767263,32.11227 0.386207,0.91081 0.853385,1.79558 1.271251,2.69647 2.975203,-0.71346 6.096767,-1.67684 9.388063,-2.94866 1.273323,-0.49204 2.585847,-1.08007 3.887099,-1.64072 0.400876,-0.17271 0.817665,-0.38673 1.22111,-0.56585 -0.702051,-1.48353 -1.379737,-2.9841 -2.020542,-4.51446 0,-0.004 0.04227,-0.0225 0.04227,-0.0259 0,-0.0946 -0.198822,-0.67077 -0.441817,-1.28054 -2.143283,-5.3775 -4.89447,-14.56533 -6.243045,-20.84938 -2.858844,-13.321352 -4.31433,-28.509217 -4.559398,-47.570746 -0.103927,-8.083073 0.108901,-19.025586 0.375185,-19.291845 0.05055,-0.0508 1.044831,-0.235363 2.209668,-0.410316 18.562717,-2.788075 39.705397,-9.572514 56.842546,-18.240749 4.976932,-2.517365 10.131802,-5.372993 12.842047,-7.113775 l 2.109469,-1.354957 2.45515,1.523421 c 4.957531,3.076147 14.464861,8.07747 19.650471,10.337353 10.52555,4.586929 19.7506,7.832436 29.40495,10.424689 4.58011,1.229796 9.23316,2.360678 14.2115,3.328997 2.65265,0.515967 5.63904,1.055928 6.6368,1.199927 l 1.81434,0.261485 0.17263,3.272151 c 0.24805,4.707955 0.18465,20.252573 -0.10591,26.024254 -0.01,0.200471 -0.0257,0.369715 -0.0356,0.568959 -0.73114,14.167035 -1.93899,25.259589 -3.77447,34.515722 -3.80298,19.17775 -10.16794,34.00334 -20.54298,47.84877 -7.47883,9.98041 -18.27978,20.08855 -29.66841,27.76523 -6.36429,4.28994 -13.8427,8.77948 -18.521358,11.11922 l -1.745639,0.87333 -1.903768,-1.01596 v -0.0636 c -0.564725,-0.2835 -1.173456,-0.60101 -1.810781,-0.94154 -0.567625,-0.3209 -1.165251,-0.65085 -1.746136,-0.9772 0,0.005 -0.0083,0.0108 -0.0099,0.016 -4.429032,-2.46427 -9.961074,-5.86467 -14.855461,-9.16379 -8.694051,-5.86037 -16.980678,-13.14252 -23.757699,-20.69847 -0.542431,0.23693 -1.097458,0.50374 -1.636573,0.73277 -4.60498,1.95646 -9.091198,3.6313 -13.455005,5.02605 6.534026,7.97758 14.097882,15.38414 22.672507,21.93561 5.699371,4.35467 10.409854,7.62219 15.338054,10.63915 2.001729,1.22545 4.762861,2.79351 7.6135,4.36201 -0.0116,0.019 -0.01823,0.029 -0.02984,0.0481 0.705781,0.37752 1.700057,0.88034 2.487637,1.29243 5.147659,2.7771 10.003757,5.23146 10.826726,5.37745 0.02901,0.009 0.360681,0.17857 0.372615,0.1788 0.963363,0.0161 14.691701,-7.24415 20.999721,-11.10578 4.9282,-3.01697 9.63877,-6.28397 15.33814,-10.63863 18.209,-13.91267 32.18754,-31.50315 40.37272,-50.80311 3.97495,-9.37255 7.2539,-20.84489 9.17723,-32.11122 2.10325,-12.320454 3.51009,-28.943965 3.82303,-43.700695 h 5e-4 c 0.0971,-4.58044 0.0964,-8.996055 -0.0307,-13.028147 -0.24946,-7.879941 -0.92996,-20.566494 -1.11313,-20.749644 -0.0622,-0.06191 -2.1262,-0.339091 -4.58733,-0.616497 -14.02876,-1.581245 -25.74492,-4.165309 -38.86535,-8.572089 -3.23129,-1.0853 -6.17592,-2.177826 -9.05158,-3.302642 -4.91966,-1.924363 -9.56948,-3.977452 -14.61462,-6.500378 C 109.87403,8.9174203 104.52316,5.8490386 97.872939,1.5135747 Z M 95.57451,40.522084 c -0.118763,8.29e-4 -0.22584,0.02768 -0.341122,0.04136 -0.01989,-6.71e-4 -0.03647,-0.0083 -0.05553,-0.0088 -0.238354,-0.0075 -0.475051,0.0085 -0.673376,0.05114 -0.562735,0.121298 -6.778762,3.477885 -8.712117,4.704623 -1.087264,0.689868 -1.408827,1.654598 -1.522369,4.564577 l -0.09978,2.558497 -12.111402,7.047632 c -6.140278,3.572697 -10.849766,6.29355 -12.120685,7.011978 -0.688128,0.385478 -1.430624,0.799051 -1.549801,0.843357 -0.163516,0.06042 -1.176191,-0.411915 -2.418932,-1.128089 -1.55063,-0.893779 -1.998332,-1.139203 -2.570432,-1.185465 -0.190783,-0.01542 -0.395489,-0.0088 -0.65937,0.0033 -0.06796,0.0025 -0.123901,0.01724 -0.187053,0.02171 -0.0905,0.0033 -0.161445,-4.15e-4 -0.269268,0.0058 -0.945792,0.06033 -1.423661,0.279752 -4.968644,2.279956 -4.323198,2.439461 -5.189015,3.101126 -5.490107,4.194067 -0.109812,0.398656 -0.247719,2.892459 -0.306479,5.541781 -0.104011,4.683067 -0.09481,4.838238 0.290981,5.596546 0.426817,0.837845 1.073175,1.378328 3.40807,2.849968 l 1.488223,0.938441 -0.185976,15.385107 -0.181915,14.92519 -1.4046,0.81907 c -2.384124,1.39035 -3.048052,1.90795 -3.503627,2.73058 -0.260234,0.46993 -0.355957,0.82762 -0.409827,2.1146 -0.07459,0.71301 -0.114039,1.59143 -0.169484,2.77915 -0.140062,3.01195 -0.126139,3.67023 0.07376,3.67266 0,0 0.02652,-0.0125 0.02983,-0.0129 0.01823,1.29525 0.05138,2.34207 0.107989,2.57918 0.07542,0.31479 0.232719,0.60447 0.467675,0.90588 0.02901,0.0522 0.04475,0.10859 0.07956,0.16537 0.178186,0.29446 0.76106,0.79547 1.618506,1.42523 5.958445,-3.67959 12.239199,-8.32616 18.650567,-13.76815 -0.527181,-0.6513 -1.416783,-1.2263 -3.029239,-2.24741 l -2.455729,-1.55546 c -0.136748,-0.62946 -0.141886,-4.0199 -0.01492,-14.50816 l 0.169483,-13.991392 0.0083,-0.585501 2.839036,-1.659331 c 1.563558,-0.914026 3.007028,-1.86548 3.20759,-2.114077 0.584035,-0.724246 0.72907,-1.542699 0.957064,-5.395536 l 0.174622,-2.941945 c 0.383224,-0.281127 7.655021,-4.527639 14.506135,-8.504908 l 0.148267,0.05636 0.895072,-0.587043 c 0.934853,-0.612992 8.076451,-4.623859 8.771541,-4.929419 0.43038,0.14646 1.364487,0.646251 2.641705,1.424723 2.807377,1.711038 3.733031,2.076144 4.828168,1.904788 0.02901,-0.0041 0.151085,-0.0687 0.19269,-0.08064 0.817664,-0.15343 1.847826,-0.63831 3.784828,-1.755443 1.200882,-0.692429 2.113612,-1.160362 2.587422,-1.334287 l 0.008,-5.22e-4 c 0.55561,0.241213 7.80752,4.549212 8.7369,5.191418 l 0.88107,0.608234 0.22899,-0.08064 c 1.88578,1.156988 2.19325,1.365457 3.98116,2.466512 2.25285,-0.788111 4.03081,-1.405719 6.05284,-2.115636 2.43559,-0.855042 3.89216,-1.342865 5.3919,-1.846392 -2.30937,-1.405587 -4.51125,-2.742534 -9.14258,-5.589842 l -11.93728,-7.339093 -0.0373,-2.560561 c -0.0431,-2.911869 -0.34121,-3.88424 -1.41123,-4.60024 -1.90311,-1.273339 -8.03526,-4.780057 -8.594846,-4.914948 -0.197164,-0.04782 -0.433447,-0.07293 -0.671801,-0.06721 z M 137.4996,72.43021 c -0.14362,0.0041 -0.27507,0.01782 -0.40982,0.04293 -0.0688,-8.29e-4 -0.15764,-0.01028 -0.2222,-0.0058 -0.57301,0.03265 -1.02593,0.267088 -2.59778,1.122934 -1.19252,0.649226 -2.14958,1.069769 -2.38851,1.059881 l -0.0572,-0.03356 c -0.26852,1.725185 -0.58553,3.726202 -0.97148,6.046676 -0.42798,2.573009 -1.20114,7.257709 -1.87841,11.349174 0.44662,0.297098 0.87667,0.589455 1.39159,0.907438 l 2.79834,1.727547 -0.008,0.509528 -0.17056,14.067362 c -0.1234,10.17503 -0.20943,13.64071 -0.35397,14.42032 l -2.50479,1.50274 c -2.01565,1.20873 -2.95929,1.76258 -3.42713,2.63602 -0.55892,0.66062 -0.71001,1.57417 -0.85214,4.86895 l -0.12763,2.96519 c -0.39682,0.31958 -15.17247,9.12496 -20.44428,12.20855 -1.84617,1.01203 -3.3421,1.80882 -3.84831,2.05054 -0.44895,-0.15834 -1.38073,-0.6483 -2.628779,-1.39165 -2.824532,-1.68235 -3.753501,-2.03825 -4.846732,-1.85571 0,6.3e-4 -0.01989,0.009 -0.02321,0.01 -0.883303,0.0387 -1.93866,0.49631 -4.206424,1.77352 -1.192269,0.67147 -2.097287,1.12417 -2.578139,1.29865 -0.74407,-0.36955 -4.255488,-2.40728 -6.569166,-3.78893 -0.684896,-0.42744 -1.520711,-0.95588 -2.267516,-1.42317 -2.745054,2.27748 -5.447674,4.4334 -8.123525,6.51433 3.900525,2.47776 8.211209,5.21528 9.364774,5.93453 1.7347,1.08165 2.662922,1.62244 3.178583,2.0655 0.03315,0.0493 0.09365,0.0902 0.120421,0.1447 l 0.0083,1.78491 c 0.01077,1.40903 0.07956,2.35861 0.271837,3.05201 0.104259,1.19899 0.343111,1.79779 0.876425,2.31613 0.307308,0.29881 2.503715,1.68029 4.880298,3.0701 3.338618,1.9524 4.468978,2.52912 4.973865,2.53525 0.04973,4.5e-4 0.142797,-0.034 0.206198,-0.0449 0.0099,5e-4 0.02818,0.01 0.0373,0.01 0.504887,0.006 1.64917,-0.54349 5.034283,-2.41433 2.409567,-1.33175 4.638707,-2.65894 4.953227,-2.9502 0.54574,-0.50528 0.7996,-1.09832 0.93278,-2.29444 0.20852,-0.68853 0.3049,-1.63627 0.34568,-3.04478 l 0.0506,-1.73632 c 0.49138,-0.45467 1.43502,-0.9686 3.35172,-2.10013 1.56132,-0.92161 7.26624,-4.34579 12.67778,-7.60935 l 9.83975,-5.93349 1.76528,1.01544 c 3.23759,1.86284 3.78516,1.87229 6.91683,0.11524 3.86787,-2.1701 6.59154,-3.98708 7.0477,-4.70101 0.0688,-0.10733 0.11106,-0.20996 0.15962,-0.31316 0.20761,-0.27038 0.33822,-0.53214 0.41447,-0.82062 0.063,-0.23569 0.12125,-1.28107 0.17006,-2.57556 l 0.0298,0.0129 c 0.20006,0.002 0.22932,-0.65456 0.16227,-3.66902 -0.0257,-1.18871 -0.0431,-2.06814 -0.10235,-2.78278 -0.0224,-1.28784 -0.10932,-1.64776 -0.35811,-2.1239 -0.43544,-0.83344 -1.08727,-1.36655 -3.437,-2.8143 l -1.38388,-0.8537 0.18142,-14.92518 0.18656,-15.38512 1.51151,-0.901752 c 2.36987,-1.414521 3.02816,-1.938983 3.4752,-2.766237 0.40419,-0.748703 0.4167,-0.903542 0.4264,-5.587777 0.008,-2.649936 -0.0713,-5.146756 -0.17164,-5.54798 -0.2744,-1.099969 -1.12348,-1.781666 -5.38618,-4.32532 -3.49542,-2.085584 -3.9684,-2.316745 -4.91237,-2.399854 -0.18399,-0.01624 -0.34004,-0.02254 -0.48367,-0.01865 z m -11.53424,3.294893 c -0.53481,0.0083 -2.90808,0.704645 -8.32094,2.429316 -4.61368,1.470024 -10.8278,3.43997 -13.80947,4.37803 -2.9815,0.938011 -7.35476,2.330585 -9.718247,3.09438 -2.363737,0.763779 -7.219585,2.295288 -10.790592,3.403412 -3.571171,1.108141 -6.460431,2.049939 -6.420816,2.092894 0.03895,0.04301 2.993685,1.655113 6.564525,3.582211 3.570841,1.927107 6.570658,3.586985 6.666215,3.688659 0.24109,0.256604 -0.08205,0.667649 -3.633909,4.634355 -7.795912,8.70383 -15.748131,16.44514 -23.519428,23.04148 0.01906,0.023 0.04558,0.045 0.06299,0.0682 -0.01823,-0.0234 -0.04558,-0.0456 -0.06381,-0.0687 -6.411285,5.44188 -12.691625,10.08862 -18.649987,13.76816 0.0083,0.006 0.01906,0.0134 0.02735,0.0196 -0.0083,-0.006 -0.01989,-0.0134 -0.02735,-0.0191 -0.255758,0.15797 -0.520551,0.34322 -0.775149,0.49765 v -5.2e-4 c -4.535032,2.75095 -8.870579,4.93516 -12.924343,6.48643 -0.654149,0.25033 -1.313933,0.51369 -1.952832,0.7307 -10.027542,3.40596 -17.053941,1.82737 -20.0189502,-4.49637 -1.2851743,-2.74143 -1.5095224,-4.18242 -1.3388786,-8.61601 0.1485985,-3.87114 0.6909459,-7.22338 1.6009359,-9.88932 0.2784668,-0.8154 0.2802072,-0.88625 0.01326,-0.55862 -0.6795918,0.83348 -4.3029761,7.52891 -5.2110599,9.62938 -2.4669181,5.70586 -3.26270348,8.5102 -3.61269324,12.73618 -0.36880284,4.4542 0.14437181,7.09852 1.95332904,10.06089 2.2447248,3.67602 5.9016743,6.0971 10.75338,7.12101 3.252178,0.68625 7.812073,0.65282 12.489156,-0.092 4.06545,-0.6474 8.40829,-1.84728 13.00175,-3.57859 4.208414,-1.58615 8.634545,-3.63595 13.24831,-6.11125 h 4.98e-4 v 5.1e-4 c 10.281891,-5.51638 21.518195,-13.198 33.524593,-22.97224 3.579211,-2.91373 16.326363,-14.61759 18.892403,-17.34623 l 1.79056,-1.90479 0.38297,0.50642 c 0.21059,0.27839 1.76031,2.27748 3.44371,4.44263 1.6834,2.16515 3.91395,5.04419 4.95729,6.39806 1.04317,1.35386 1.93104,2.43073 1.97247,2.39261 0.0414,-0.0381 0.31883,-1.41706 0.61653,-3.06441 0.29794,-1.64732 0.7647,-4.12151 1.03712,-5.49837 0.27258,-1.37683 1.4806,-7.55115 2.68414,-13.72008 1.20354,-6.168974 2.88362,-14.755799 3.73361,-19.082047 0.8499,-4.326297 1.52112,-7.992181 1.49237,-8.146788 -0.008,-0.02602 -0.0439,-0.03879 -0.12042,-0.03771 z M 63.906114,128.35911 v 5.2e-4 c -0.0174,0.0166 -0.03481,0.032 -0.05138,0.0486 0.0174,-0.0166 0.03481,-0.0325 0.05138,-0.0491 z m -15.756169,13.93506 c -0.01658,0.0134 -0.03315,0.0279 -0.04973,0.0414 -0.0174,-0.0105 -0.02983,-0.019 -0.04641,-0.0294 0.01575,0.01 0.03066,0.019 0.04641,0.0289 0.01658,-0.0134 0.03315,-0.0274 0.04973,-0.0409 z" /></svg>
